<svg xmlns="http://www.w3.org/2000/svg" aria-hidden="true" style="position:absolute;width:0;height:0;overflow:hidden">
  <defs>
    <symbol id="icon-ant-design_star-filled" viewBox="0 0 32 32">
      <path fill="#6cb981" d="m28.377 11.034-7.934-1.153-3.547-7.191a.994.994 0 0 0-.453-.453 1.004 1.004 0 0 0-1.341.453l-3.547 7.191-7.934 1.153a1.004 1.004 0 0 0-.554 1.707l5.741 5.597-1.356 7.903a1 1 0 0 0 1.45 1.053l7.097-3.731 7.097 3.731a.998.998 0 0 0 1.449-1.053l-1.356-7.903 5.741-5.597c.156-.153.259-.353.291-.572a.996.996 0 0 0-.844-1.134z" style="fill:var(--color1, #6cb981)"/>
    </symbol>
    <symbol id="icon-ic_round-mail" viewBox="0 0 32 32">
      <path fill="#4db96b" d="M26.667 5.333H5.334A2.675 2.675 0 0 0 2.667 8v16c0 1.467 1.2 2.667 2.667 2.667h21.333c1.467 0 2.667-1.2 2.667-2.667V8c0-1.467-1.2-2.667-2.667-2.667zM26.133 11l-8.72 5.453a2.64 2.64 0 0 1-2.827 0L5.866 11a1.119 1.119 0 0 1-.543-.707 1.144 1.144 0 0 1 .137-.882 1.135 1.135 0 0 1 1.606-.331l8.933 5.587 8.933-5.587a1.147 1.147 0 0 1 .874-.179A1.135 1.135 0 0 1 26.132 11z" style="fill:var(--color2, #4db96b)"/>
    </symbol>
    <symbol id="icon-ic_round-call" viewBox="0 0 32 32">
      <path fill="#4db96b" d="m25.64 20.347-3.387-.387a2.647 2.647 0 0 0-2.187.76l-2.453 2.453a20.062 20.062 0 0 1-8.787-8.787l2.467-2.467a2.656 2.656 0 0 0 .76-2.187l-.387-3.36c-.076-.65-.388-1.25-.877-1.686s-1.121-.675-1.776-.674H6.706c-1.507 0-2.76 1.253-2.667 2.76.707 11.387 9.813 20.48 21.187 21.187 1.507.093 2.76-1.16 2.76-2.667v-2.307c.013-1.347-1-2.48-2.347-2.64z" style="fill:var(--color2, #4db96b)"/>
    </symbol>
    <symbol id="icon-ic_round-location-on" viewBox="0 0 32 32">
      <path fill="#4db96b" d="M16 2.667A9.326 9.326 0 0 0 6.667 12c0 5.56 5.893 13.227 8.32 16.147.533.64 1.507.64 2.04 0C19.44 25.227 25.334 17.56 25.334 12a9.326 9.326 0 0 0-9.333-9.333zm0 12.666a3.333 3.333 0 1 1 0-6.667 3.333 3.333 0 0 1 0 6.667z" style="fill:var(--color2, #4db96b)"/>
    </symbol>
    <symbol id="icon-Group-522" viewBox="0 0 38 32">
      <path fill="none" stroke="#134e1c" stroke-linecap="round" stroke-width=".681" d="M.341 17.326c3.991-4.056 16.974-10.268 36.981-2.674" style="stroke:var(--color3, #134e1c)"/>
      <path fill="none" stroke="#134e1c" stroke-linecap="round" stroke-width=".681" d="M.682 19.77c3.417-4.55 15.46-12.431 36.298-7.561" style="stroke:var(--color3, #134e1c)"/>
      <path fill="none" stroke="#134e1c" stroke-linecap="round" stroke-width=".681" d="M1.386 22.241C4.134 17.259 14.96 7.773 36.274 9.687" style="stroke:var(--color3, #134e1c)"/>
    </symbol>
  </defs>
</svg>
